<?xml version="1.0" encoding="UTF-8"?>
<!DOCTYPE svg PUBLIC "-//W3C//DTD SVG 1.1//EN" "http://www.w3.org/Graphics/SVG/1.1/DTD/svg11.dtd">
<svg xmlns="http://www.w3.org/2000/svg" version="1.1" width="1786px" height="1786px" style="shape-rendering:geometricPrecision; text-rendering:geometricPrecision; image-rendering:optimizeQuality; fill-rule:evenodd; clip-rule:evenodd" xmlns:xlink="http://www.w3.org/1999/xlink">
<g><path style="opacity:1" fill="#fefffe" d="M 708.5,2.5 C 770.01,2.10633 831.51,2.773 893,4.5C 926.523,4.68457 960.023,4.0179 993.5,2.5C 1037.48,4.1371 1081.48,4.97043 1125.5,5C 1128.17,6.33333 1130.83,7.66667 1133.5,9C 1139.93,15.3683 1145.76,22.2016 1151,29.5C 1154.31,32.8177 1158.15,35.3177 1162.5,37C 1182.83,37.3333 1203.17,37.6667 1223.5,38C 1230.55,39.9442 1236.38,43.7775 1241,49.5C 1252.05,70.0984 1269.21,77.5984 1292.5,72C 1297.05,73.8578 1301.22,76.3578 1305,79.5C 1309.74,86.9115 1315.24,93.7449 1321.5,100C 1327.33,104.5 1333.17,109 1339,113.5C 1344.46,120.627 1350.29,127.461 1356.5,134C 1359.17,135.333 1361.83,136.667 1364.5,138C 1373.83,138.333 1383.17,138.667 1392.5,139C 1396.11,140.139 1399.45,141.806 1402.5,144C 1408.1,149.593 1412.93,155.76 1417,162.5C 1423.08,167.454 1429.24,172.287 1435.5,177C 1441.03,183.227 1446.19,189.727 1451,196.5C 1456.83,201 1462.67,205.5 1468.5,210C 1474.1,215.593 1478.93,221.76 1483,228.5C 1491.67,235.833 1500.33,243.167 1509,250.5C 1512.06,256.23 1515.9,261.397 1520.5,266C 1526.76,270.378 1532.92,274.878 1539,279.5C 1541.41,282.062 1543.08,285.062 1544,288.5C 1545.14,297.457 1545.81,306.457 1546,315.5C 1546.34,322.855 1549.17,329.022 1554.5,334C 1566.21,340.258 1575.38,349.091 1582,360.5C 1588.26,366.759 1595.09,372.259 1602.5,377C 1608.49,382.138 1611.99,388.638 1613,396.5C 1613.63,410.373 1613.13,424.206 1611.5,438C 1610.5,449.018 1613.5,458.685 1620.5,467C 1628.11,471.063 1634.94,476.229 1641,482.5C 1642.89,485.618 1644.23,488.951 1645,492.5C 1645.83,501.821 1646.5,511.155 1647,520.5C 1648.13,526.305 1650.96,531.138 1655.5,535C 1661.95,539.113 1668.11,543.613 1674,548.5C 1676.98,553.095 1678.98,558.095 1680,563.5C 1679.33,692.833 1679.33,822.167 1680,951.5C 1678.98,956.905 1676.98,961.905 1674,966.5C 1668.11,971.387 1661.95,975.887 1655.5,980C 1650.96,983.862 1648.13,988.695 1647,994.5C 1646.46,1004.18 1645.79,1013.84 1645,1023.5C 1642.34,1033.6 1635.84,1039.77 1625.5,1042C 1137.17,1042.67 648.833,1042.67 160.5,1042C 155.72,1040.44 151.387,1038.11 147.5,1035C 142.313,1027.63 136.646,1020.63 130.5,1014C 124.321,1009.74 118.321,1005.24 112.5,1000.5C 106.741,991.718 104.408,982.052 105.5,971.5C 107,933.647 106.666,895.814 104.5,858C 107.165,779.833 107.165,701.667 104.5,623.5C 104.806,601.797 105.639,580.13 107,558.5C 108.139,554.888 109.806,551.554 112,548.5C 116.742,544.546 121.576,540.713 126.5,537C 133.887,530.526 138.053,522.359 139,512.5C 140.436,500.009 140.269,487.509 138.5,475C 137.914,464.667 140.581,455.333 146.5,447C 154.09,441.287 161.59,435.454 169,429.5C 170.275,427.283 171.275,424.949 172,422.5C 172.736,410.41 174.07,398.41 176,386.5C 178.075,382.421 180.908,378.921 184.5,376C 188.898,372.606 193.565,369.606 198.5,367C 202.423,363.323 204.923,358.823 206,353.5C 206.471,343.82 207.138,334.153 208,324.5C 209.072,319.188 211.572,314.688 215.5,311C 227.946,304.887 237.446,295.721 244,283.5C 250.587,276.909 257.753,271.076 265.5,266C 270.104,261.397 273.938,256.23 277,250.5C 283.587,243.909 290.753,238.076 298.5,233C 303.274,227.949 307.44,222.449 311,216.5C 317.376,210.4 324.21,204.9 331.5,200C 336.765,194.737 341.265,188.904 345,182.5C 351.376,176.4 358.21,170.9 365.5,166C 370.363,160.437 374.863,154.604 379,148.5C 385.742,142.88 392.575,137.38 399.5,132C 404.274,126.949 408.44,121.449 412,115.5C 416.471,110.359 421.971,106.859 428.5,105C 438.167,104.667 447.833,104.333 457.5,104C 459.67,102.414 462.004,101.08 464.5,100C 470.759,93.7449 476.259,86.9115 481,79.5C 484.785,76.3578 488.952,73.8578 493.5,72C 516.019,77.4761 532.853,70.3095 544,50.5C 547.97,45.5246 552.803,41.6912 558.5,39C 580.171,38.0492 601.838,36.7159 623.5,35C 627.327,33.254 630.993,31.254 634.5,29C 640.5,22.3333 646.5,15.6667 652.5,9C 655.167,7.66667 657.833,6.33333 660.5,5C 676.697,4.91713 692.697,4.0838 708.5,2.5 Z M 991.5,43.5 C 997.121,43.6548 1002.12,45.4881 1006.5,49C 1010.67,53.1407 1014.5,57.6407 1018,62.5C 1020.89,65.3614 1024.06,67.8614 1027.5,70C 1037.09,71.2546 1046.76,71.9212 1056.5,72C 1061.41,73.7084 1065.58,76.5417 1069,80.5C 1073.07,87.2402 1077.9,93.4069 1083.5,99C 1089.17,102.333 1094.83,102.333 1100.5,99C 1107.27,91.4751 1114.27,84.1417 1121.5,77C 1125.83,75 1130.17,75 1134.5,77C 1138.3,79.7969 1141.8,82.9636 1145,86.5C 1156.16,104.679 1172.32,111.179 1193.5,106C 1202.66,110.456 1209.49,117.29 1214,126.5C 1217.64,131.146 1222.14,134.646 1227.5,137C 1237.76,138.26 1248.09,138.927 1258.5,139C 1264.58,141.127 1269.75,144.627 1274,149.5C 1278.98,160.484 1287.15,167.984 1298.5,172C 1308.17,172.333 1317.83,172.667 1327.5,173C 1337.29,177.398 1343.12,184.898 1345,195.5C 1344.47,219.669 1344.63,243.835 1345.5,268C 1347.16,280.099 1344.16,290.766 1336.5,300C 1324.64,306.822 1315.14,315.989 1308,327.5C 1305.83,329.667 1303.67,331.833 1301.5,334C 1294.42,338.406 1287.92,343.572 1282,349.5C 1279.89,354.284 1278.55,359.284 1278,364.5C 1277.67,371.167 1277.33,377.833 1277,384.5C 1276.41,391.182 1273.58,396.682 1268.5,401C 1261.72,405.448 1255.22,410.281 1249,415.5C 1244.12,424.547 1242.28,434.214 1243.5,444.5C 1244.51,468.164 1245.01,491.831 1245,515.5C 1243.35,527.139 1237.19,535.306 1226.5,540C 1222.34,543.159 1218.51,546.659 1215,550.5C 1212.26,555.133 1210.59,560.133 1210,565.5C 1210.29,683.159 1210.62,800.825 1211,918.5C 1213.57,932.147 1213.9,945.814 1212,959.5C 1205.77,972.481 1196.6,974.981 1184.5,967C 1180.21,961.042 1175.54,955.376 1170.5,950C 1162.26,943.823 1154.26,944.156 1146.5,951C 1141.61,960.221 1134.95,967.888 1126.5,974C 1115.83,974.667 1105.17,974.667 1094.5,974C 1090.39,970.897 1086.56,967.397 1083,963.5C 1079.2,956.375 1074.04,950.542 1067.5,946C 1061.19,943.705 1055.19,944.372 1049.5,948C 1044.23,953.263 1039.73,959.096 1036,965.5C 1033.13,968.704 1029.96,971.537 1026.5,974C 1015.17,974.667 1003.83,974.667 992.5,974C 988.084,971.588 984.251,968.422 981,964.5C 976.863,958.396 972.363,952.563 967.5,947C 961.245,942.622 955.078,938.122 949,933.5C 943.398,924.495 941.231,914.662 942.5,904C 943.654,634.164 943.821,364.331 943,94.5C 943.632,88.9355 945.632,83.9355 949,79.5C 954.776,75.3588 960.276,70.8588 965.5,66C 970.5,60.3333 975.5,54.6667 980.5,49C 983.99,46.588 987.657,44.7547 991.5,43.5 Z M 720.5,44.5 C 724.792,44.0349 728.792,44.8682 732.5,47C 739.188,52.6901 745.522,58.6901 751.5,65C 757.477,68.2904 763.143,67.7904 768.5,63.5C 773.324,57.8432 778.657,52.6765 784.5,48C 791.76,43.1165 798.76,43.4498 805.5,49C 810.5,54.6667 815.5,60.3333 820.5,66C 825.724,70.8588 831.224,75.3588 837,79.5C 840.368,83.9355 842.368,88.9355 843,94.5C 842.358,370.161 842.358,645.828 843,921.5C 845.196,932.746 845.862,944.079 845,955.5C 840.421,971.71 830.921,975.543 816.5,967C 811.183,959.685 805.183,953.018 798.5,947C 790.606,943.924 783.773,945.424 778,951.5C 773.015,960.295 766.515,967.795 758.5,974C 747.833,974.667 737.167,974.667 726.5,974C 719.514,969.221 714.014,963.055 710,955.5C 707.5,953 705,950.5 702.5,948C 695.55,943.346 688.55,943.346 681.5,948C 676.235,953.263 671.735,959.096 668,965.5C 665.131,968.704 661.965,971.537 658.5,974C 647.167,974.667 635.833,974.667 624.5,974C 620.084,971.588 616.251,968.422 613,964.5C 608.955,958.91 604.788,953.41 600.5,948C 593.732,943.532 587.232,938.699 581,933.5C 575.551,925.376 573.051,916.376 573.5,906.5C 574.817,896.334 574.817,886.168 573.5,876C 572.858,864.873 576.191,855.207 583.5,847C 590.617,842.217 597.45,837.051 604,831.5C 606.66,827.186 608.327,822.519 609,817.5C 608.229,759.669 608.396,701.835 609.5,644C 611.567,623.748 603.234,609.748 584.5,602C 576.419,593.709 572.752,583.709 573.5,572C 574.89,550.853 575.89,529.686 576.5,508.5C 577.499,495.983 573.499,485.483 564.5,477C 557.88,472.77 551.713,467.937 546,462.5C 538.478,449.979 528.311,440.145 515.5,433C 510.117,426.524 507.283,419.024 507,410.5C 507.278,398.487 508.111,386.487 509.5,374.5C 510.727,362.475 507.061,352.308 498.5,344C 485.5,336.333 475.167,326 467.5,313C 461.779,308.279 455.779,303.946 449.5,300C 441.845,290.766 438.845,280.099 440.5,268C 441.344,243.502 441.511,219.002 441,194.5C 442.271,185.118 447.104,178.285 455.5,174C 466.094,172.737 476.761,172.07 487.5,172C 498.85,167.984 507.017,160.484 512,149.5C 518.376,143.4 525.21,137.9 532.5,133C 537.046,128.123 541.213,122.956 545,117.5C 554.343,105.864 566.343,101.864 581,105.5C 586.806,105.454 591.973,103.62 596.5,100C 602.496,93.0044 608.829,86.3377 615.5,80C 622.593,76.4402 629.259,77.1069 635.5,82C 640.268,87.5241 645.268,92.8574 650.5,98C 656.33,102.086 662.33,102.42 668.5,99C 682.313,82.5523 696.48,66.3856 711,50.5C 714.18,48.3377 717.346,46.3377 720.5,44.5 Z M 325.5,305.5 C 335.839,305.334 346.172,305.5 356.5,306C 362.152,308.75 366.986,312.583 371,317.5C 373.888,322.776 377.388,327.609 381.5,332C 388.423,337.045 395.256,342.212 402,347.5C 403.861,349.888 405.194,352.554 406,355.5C 407.099,366.482 408.099,377.482 409,388.5C 410.355,393.38 412.855,397.547 416.5,401C 424.755,405.538 431.922,411.371 438,418.5C 438.667,420.5 439.333,422.5 440,424.5C 441.016,433.807 441.683,443.14 442,452.5C 442.966,459.265 446.133,464.765 451.5,469C 457.947,473.113 464.114,477.613 470,482.5C 474.678,490.547 476.511,499.213 475.5,508.5C 474.194,521.14 473.694,533.807 474,546.5C 474.272,552.588 475.938,558.255 479,563.5C 484.88,568.715 491.047,573.548 497.5,578C 503.636,583.956 509.302,590.29 514.5,597C 519.558,601.057 524.892,604.724 530.5,608C 539.983,616.794 540.983,626.46 533.5,637C 527.674,641.413 521.674,645.58 515.5,649.5C 513.081,651.754 511.248,654.421 510,657.5C 509.035,668.872 507.701,680.205 506,691.5C 504.325,697.841 500.492,702.341 494.5,705C 492.212,705.822 489.878,706.489 487.5,707C 389.5,707.667 291.5,707.667 193.5,707C 184.173,705.005 178.007,699.505 175,690.5C 174.035,679.827 173.035,669.161 172,658.5C 171,656.5 170,654.5 169,652.5C 163.791,647.622 158.291,643.122 152.5,639C 144.155,630.201 143.321,620.701 150,610.5C 161.345,602.166 171.845,592.666 181.5,582C 186.772,579.059 191.772,575.726 196.5,572C 204.4,564.859 205.566,556.692 200,547.5C 191.619,542.119 184.952,535.119 180,526.5C 178.16,518.345 180.66,511.845 187.5,507C 191.714,503.118 196.214,499.618 201,496.5C 202.586,494.33 203.92,491.996 205,489.5C 206.745,479.597 207.745,469.597 208,459.5C 209.516,449.649 215.016,443.149 224.5,440C 230.074,436.096 234.574,431.262 238,425.5C 238.667,422.833 239.333,420.167 240,417.5C 240.224,408.13 240.891,398.796 242,389.5C 242.725,387.051 243.725,384.717 245,382.5C 251.076,377.546 257.243,372.713 263.5,368C 269.732,361.604 275.399,354.771 280.5,347.5C 286.023,342.81 291.689,338.31 297.5,334C 302.506,329.474 306.673,324.307 310,318.5C 314.48,313.173 319.647,308.84 325.5,305.5 Z M 1429.5,305.5 C 1439.84,305.334 1450.17,305.5 1460.5,306C 1468.67,308.833 1474.17,314.333 1477,322.5C 1478.08,333.156 1479.08,343.823 1480,354.5C 1480.8,357.244 1481.8,359.911 1483,362.5C 1489.23,368.028 1495.73,373.194 1502.5,378C 1508.83,385.667 1515.17,393.333 1521.5,401C 1527.6,404.799 1533.43,408.965 1539,413.5C 1541.61,416.324 1543.28,419.658 1544,423.5C 1545.1,432.463 1545.76,441.463 1546,450.5C 1546.46,455.096 1547.8,459.429 1550,463.5C 1555.91,469.197 1562.41,474.03 1569.5,478C 1572.76,480.592 1575.26,483.759 1577,487.5C 1579.02,494.177 1580.19,501.01 1580.5,508C 1579.11,529.147 1578.11,550.314 1577.5,571.5C 1576.79,581.877 1579.45,591.21 1585.5,599.5C 1592.76,604.712 1599.92,610.045 1607,615.5C 1610.52,620.235 1612.52,625.568 1613,631.5C 1613.92,650.538 1613.59,669.538 1612,688.5C 1609.07,698.434 1602.57,704.6 1592.5,707C 1505.5,707.667 1418.5,707.667 1331.5,707C 1328.83,706 1326.17,705 1323.5,704C 1317.26,698.761 1312.1,692.594 1308,685.5C 1299.33,678.167 1290.67,670.833 1282,663.5C 1275.16,651.428 1273.83,638.762 1278,625.5C 1280.41,621.084 1283.58,617.251 1287.5,614C 1293.95,610.692 1299.78,606.526 1305,601.5C 1309.83,594.152 1309.33,587.152 1303.5,580.5C 1296.56,575.734 1290.06,570.4 1284,564.5C 1279.79,556.098 1280.96,548.598 1287.5,542C 1299.3,535.215 1309.63,526.548 1318.5,516C 1325.62,511.217 1332.45,506.051 1339,500.5C 1342.33,494.5 1342.33,488.5 1339,482.5C 1331.89,475.94 1324.56,469.607 1317,463.5C 1313.12,456.076 1313.95,449.243 1319.5,443C 1327.34,438.337 1334.5,432.837 1341,426.5C 1342.56,424.043 1343.56,421.376 1344,418.5C 1344.37,409.145 1345.04,399.811 1346,390.5C 1347.06,387.382 1348.39,384.382 1350,381.5C 1356.55,375.949 1363.38,370.783 1370.5,366C 1374.61,361.609 1378.11,356.776 1381,351.5C 1388.25,344.246 1396.08,337.746 1404.5,332C 1408.61,327.609 1412.11,322.776 1415,317.5C 1419.26,312.646 1424.09,308.646 1429.5,305.5 Z M 184.5,777.5 C 192.049,777.026 198.216,779.692 203,785.5C 206.453,790.621 210.286,795.454 214.5,800C 219.958,804.189 225.624,804.522 231.5,801C 237.5,794.333 243.5,787.667 249.5,781C 256.518,777.335 262.851,778.335 268.5,784C 272.455,789.623 276.788,794.957 281.5,800C 286.958,804.189 292.624,804.522 298.5,801C 304.5,794.333 310.5,787.667 316.5,781C 321.5,777.667 326.5,777.667 331.5,781C 337.157,787.292 342.824,793.626 348.5,800C 353.92,804.179 359.587,804.513 365.5,801C 371.5,794.333 377.5,787.667 383.5,781C 388.5,777.667 393.5,777.667 398.5,781C 404.167,787.333 409.833,793.667 415.5,800C 421.5,804.667 427.5,804.667 433.5,800C 439.167,793.667 444.833,787.333 450.5,781C 460.474,776.121 468.64,778.288 475,787.5C 482.263,798.431 491.263,807.764 502,815.5C 504.527,819.221 506.527,823.221 508,827.5C 509.567,845.465 509.9,863.465 509,881.5C 508.355,888.608 505.855,894.942 501.5,900.5C 493.687,906.15 486.187,912.15 479,918.5C 477.725,920.717 476.725,923.051 476,925.5C 474.935,934.802 474.268,944.135 474,953.5C 472.346,964.824 466.013,972.157 455,975.5C 445.201,974.703 435.368,974.203 425.5,974C 421.759,972.262 418.592,969.762 416,966.5C 399.333,937.167 382.667,937.167 366,966.5C 363.408,969.762 360.241,972.262 356.5,974C 345.833,974.667 335.167,974.667 324.5,974C 321.035,971.537 317.869,968.704 315,965.5C 310.534,957.704 304.7,951.204 297.5,946C 290.011,943.269 283.345,944.602 277.5,950C 273.555,953.946 270.389,958.446 268,963.5C 264.466,967.369 260.633,970.869 256.5,974C 245.5,974.667 234.5,974.667 223.5,974C 219.722,971.888 216.222,969.388 213,966.5C 206.167,954.333 196.667,944.833 184.5,938C 179.781,934.611 176.614,930.111 175,924.5C 174,913.833 173,903.167 172,892.5C 170.92,890.004 169.586,887.67 168,885.5C 161.374,880.543 155.04,875.209 149,869.5C 143.215,859.122 144.715,849.956 153.5,842C 158.424,838.287 163.258,834.454 168,830.5C 169,828.5 170,826.5 171,824.5C 172.27,812.904 172.936,801.238 173,789.5C 175.045,783.624 178.878,779.624 184.5,777.5 Z M 1289.5,777.5 C 1294.18,777.338 1298.52,778.505 1302.5,781C 1307.64,786.298 1312.31,791.965 1316.5,798C 1322.56,803.981 1329.23,804.814 1336.5,800.5C 1341.94,794.467 1347.27,788.3 1352.5,782C 1355.31,780.342 1358.31,779.175 1361.5,778.5C 1364.69,779.175 1367.69,780.342 1370.5,782C 1375.73,788.3 1381.06,794.467 1386.5,800.5C 1393.77,804.814 1400.44,803.981 1406.5,798C 1410.45,792.377 1414.79,787.043 1419.5,782C 1422.31,780.342 1425.31,779.175 1428.5,778.5C 1431.69,779.175 1434.69,780.342 1437.5,782C 1442.73,788.3 1448.06,794.467 1453.5,800.5C 1460.77,804.814 1467.44,803.981 1473.5,798C 1477.45,792.377 1481.79,787.043 1486.5,782C 1489.31,780.342 1492.31,779.175 1495.5,778.5C 1498.69,779.175 1501.69,780.342 1504.5,782C 1509.3,788.635 1514.64,794.801 1520.5,800.5C 1525.75,804.187 1531.08,804.353 1536.5,801C 1542.5,794.333 1548.5,787.667 1554.5,781C 1561.4,777.417 1568.07,777.75 1574.5,782C 1578.61,786.391 1582.11,791.224 1585,796.5C 1591.77,803.867 1599.1,810.534 1607,816.5C 1610.37,820.935 1612.37,825.935 1613,831.5C 1613.67,849.167 1613.67,866.833 1613,884.5C 1612.07,891.852 1608.91,898.019 1603.5,903C 1598.83,906 1594.17,909 1589.5,912C 1584.42,915.99 1581.25,921.157 1580,927.5C 1579.17,936.821 1578.5,946.155 1578,955.5C 1575.45,965.713 1569.12,972.38 1559,975.5C 1549.2,974.703 1539.37,974.203 1529.5,974C 1525.37,970.869 1521.53,967.369 1518,963.5C 1514.2,956.375 1509.04,950.542 1502.5,946C 1495.61,943.486 1489.28,944.486 1483.5,949C 1478.73,954.051 1474.56,959.551 1471,965.5C 1468.13,968.704 1464.96,971.537 1461.5,974C 1450.83,974.667 1440.17,974.667 1429.5,974C 1425.76,972.262 1422.59,969.762 1420,966.5C 1403.33,937.167 1386.67,937.167 1370,966.5C 1367.41,969.762 1364.24,972.262 1360.5,974C 1349.5,974.667 1338.5,974.667 1327.5,974C 1318.86,968.027 1311.53,960.694 1305.5,952C 1296.45,946.949 1288.62,940.449 1282,932.5C 1281.19,927.743 1281.52,923.076 1283,918.5C 1290.01,911.822 1297.35,905.489 1305,899.5C 1309.67,893.167 1309.67,886.833 1305,880.5C 1299.12,874.814 1292.62,869.98 1285.5,866C 1281.85,862.547 1279.35,858.38 1278,853.5C 1276.33,833.199 1275.67,812.866 1276,792.5C 1278.25,785.246 1282.75,780.246 1289.5,777.5 Z"/></g>
<g><path style="opacity:1" fill="#fefffe" d="M 460.5,1106.5 C 470.788,1107.76 481.122,1108.43 491.5,1108.5C 520.823,1106.17 550.157,1106.01 579.5,1108C 637.833,1108.33 696.167,1108.67 754.5,1109C 763.573,1111.74 769.74,1117.57 773,1126.5C 777.434,1140.98 775.768,1154.65 768,1167.5C 764.731,1170.88 760.897,1173.38 756.5,1175C 747.167,1175.33 737.833,1175.67 728.5,1176C 725.167,1177.67 721.833,1179.33 718.5,1181C 712.5,1187.67 706.5,1194.33 700.5,1201C 692.973,1205.86 686.806,1212.03 682,1219.5C 680.959,1224.44 681.626,1229.11 684,1233.5C 689.645,1239.48 695.645,1245.14 702,1250.5C 705.333,1256.5 705.333,1262.5 702,1268.5C 696.667,1273.17 691.333,1277.83 686,1282.5C 683.548,1285.57 682.048,1289.07 681.5,1293C 682.048,1296.93 683.548,1300.43 686,1303.5C 691.667,1308.5 697.333,1313.5 703,1318.5C 706.333,1324.83 706.333,1331.17 703,1337.5C 698.123,1342.05 692.956,1346.21 687.5,1350C 683.279,1353.61 680.446,1358.11 679,1363.5C 678.665,1372.53 677.999,1381.53 677,1390.5C 672.947,1403.27 664.447,1408.43 651.5,1406C 644.524,1402.23 640.358,1396.4 639,1388.5C 638.418,1384.18 637.918,1379.84 637.5,1375.5C 641.817,1348.08 642.484,1320.58 639.5,1293C 640.38,1281.85 641.047,1270.68 641.5,1259.5C 640.178,1241.67 640.178,1223.83 641.5,1206C 643.405,1190.65 637.071,1180.65 622.5,1176C 612.833,1175.67 603.167,1175.33 593.5,1175C 591.051,1174.28 588.717,1173.28 586.5,1172C 579.801,1165.64 573.468,1158.97 567.5,1152C 564.672,1149.75 561.672,1147.75 558.5,1146C 548.256,1145.82 538.09,1145.32 528,1144.5C 512.44,1153.63 505.94,1167.29 508.5,1185.5C 510.964,1210.17 510.964,1234.84 508.5,1259.5C 511.153,1287.36 510.82,1315.19 507.5,1343C 508.595,1355 509.595,1367 510.5,1379C 512.135,1394.33 505.635,1403.83 491,1407.5C 485.432,1406.87 480.766,1404.54 477,1400.5C 473.077,1394.08 468.577,1388.08 463.5,1382.5C 457.519,1377.69 451.686,1372.69 446,1367.5C 440.325,1356.73 438.991,1345.4 442,1333.5C 443.122,1329.05 445.122,1325.05 448,1321.5C 454.302,1316.2 460.302,1310.53 466,1304.5C 469.595,1297.3 469.261,1290.3 465,1283.5C 459.709,1278.03 454.042,1273.03 448,1268.5C 446.377,1265.67 445.21,1262.67 444.5,1259.5C 445.21,1256.33 446.377,1253.33 448,1250.5C 454.042,1245.97 459.709,1240.97 465,1235.5C 469.667,1229.17 469.667,1222.83 465,1216.5C 460.667,1212.17 456.333,1207.83 452,1203.5C 447.02,1197.6 446.353,1191.27 450,1184.5C 454.689,1178.81 459.689,1173.48 465,1168.5C 469.177,1162.1 468.844,1155.77 464,1149.5C 458.635,1143.8 452.969,1138.47 447,1133.5C 441.558,1119.46 446.058,1110.46 460.5,1106.5 Z"/></g>
<g><path style="opacity:1" fill="#fefffe" d="M 993.5,1106.5 C 1004.19,1107 1014.85,1107.84 1025.5,1109C 1027.5,1110 1029.5,1111 1031.5,1112C 1038.21,1118.04 1044.21,1124.71 1049.5,1132C 1058.69,1137.19 1065.86,1144.36 1071,1153.5C 1072.21,1159.89 1071.21,1165.89 1068,1171.5C 1062.24,1177.26 1055.91,1182.26 1049,1186.5C 1045.9,1190.7 1043.9,1195.36 1043,1200.5C 1042.07,1219.21 1042.4,1237.88 1044,1256.5C 1045.33,1259.17 1046.67,1261.83 1048,1264.5C 1055.29,1270.13 1062.29,1276.13 1069,1282.5C 1072.33,1289.5 1072.33,1296.5 1069,1303.5C 1062.67,1309.83 1056.33,1316.17 1050,1322.5C 1045.23,1330.85 1043.06,1339.85 1043.5,1349.5C 1044.44,1360 1045.44,1370.5 1046.5,1381C 1046.74,1388.41 1044.91,1395.24 1041,1401.5C 1034.31,1407.86 1026.81,1409.02 1018.5,1405C 1014.7,1402.2 1011.2,1399.04 1008,1395.5C 1005.92,1391.42 1003.09,1387.92 999.5,1385C 993.709,1380.88 988.209,1376.38 983,1371.5C 978.333,1364.83 978.333,1358.17 983,1351.5C 988.692,1346.47 994.359,1341.47 1000,1336.5C 1005.53,1329.42 1005.87,1322.09 1001,1314.5C 991.833,1305.33 982.667,1296.17 973.5,1287C 965.864,1281.08 958.197,1281.08 950.5,1287C 945.5,1292 940.5,1297 935.5,1302C 929.5,1306.67 923.5,1306.67 917.5,1302C 911.838,1295.34 905.838,1289 899.5,1283C 887.392,1276.97 879.225,1280.47 875,1293.5C 874.144,1297.62 873.644,1301.79 873.5,1306C 874.945,1318 876.278,1330 877.5,1342C 878.088,1350.73 876.255,1358.9 872,1366.5C 864.667,1373.17 857.333,1379.83 850,1386.5C 845.82,1393.01 840.654,1398.51 834.5,1403C 822.547,1407.44 813.714,1403.94 808,1392.5C 806.099,1380.47 806.432,1368.47 809,1356.5C 808.866,1281.14 809.866,1205.81 812,1130.5C 815.49,1113.18 825.99,1105.85 843.5,1108.5C 857.945,1106.31 868.445,1111.64 875,1124.5C 875.882,1127.79 876.548,1131.12 877,1134.5C 877.372,1147.69 876.872,1160.86 875.5,1174C 873.698,1186.39 877.364,1196.73 886.5,1205C 893.912,1209.74 900.745,1215.24 907,1221.5C 911.947,1230.24 918.781,1237.07 927.5,1242C 938.183,1241.95 948.85,1241.29 959.5,1240C 968.265,1236.24 973.765,1229.74 976,1220.5C 976.333,1214.17 976.667,1207.83 977,1201.5C 977.405,1195.28 979.571,1189.78 983.5,1185C 989.156,1180.5 995.156,1176.5 1001.5,1173C 1009.11,1162.82 1007.78,1153.82 997.5,1146C 989.286,1141.51 983.453,1135.01 980,1126.5C 979.432,1122.11 980.432,1118.11 983,1114.5C 985.94,1110.96 989.44,1108.3 993.5,1106.5 Z"/></g>
<g><path style="opacity:1" fill="#fefffe" d="M 1316.5,1106.5 C 1332.86,1106.24 1340.36,1114.24 1339,1130.5C 1338.28,1132.95 1337.28,1135.28 1336,1137.5C 1330.31,1142.69 1324.48,1147.69 1318.5,1152.5C 1312.98,1158.18 1307.65,1164.02 1302.5,1170C 1298.64,1172.93 1294.31,1174.76 1289.5,1175.5C 1268.35,1173.14 1247.19,1173.14 1226,1175.5C 1216.14,1174.89 1206.31,1174.39 1196.5,1174C 1183.64,1177.22 1178.47,1185.39 1181,1198.5C 1182.44,1201.6 1184.27,1204.44 1186.5,1207C 1192.12,1210.95 1197.46,1215.29 1202.5,1220C 1207.92,1227.42 1214.59,1233.42 1222.5,1238C 1226.78,1238.97 1230.78,1238.3 1234.5,1236C 1240.39,1230.86 1246.06,1225.53 1251.5,1220C 1259.69,1213.91 1267.69,1214.25 1275.5,1221C 1282.08,1229.27 1290.08,1235.6 1299.5,1240C 1309.24,1240.08 1318.91,1240.75 1328.5,1242C 1339.37,1248.61 1342.2,1257.77 1337,1269.5C 1334.15,1273.67 1330.32,1276.51 1325.5,1278C 1305.46,1278.64 1285.46,1278.31 1265.5,1277C 1262.55,1277.81 1259.89,1279.14 1257.5,1281C 1251.83,1287.33 1246.17,1293.67 1240.5,1300C 1232.06,1305.06 1224.06,1304.4 1216.5,1298C 1210.71,1291.21 1204.05,1285.54 1196.5,1281C 1187.77,1278.44 1181.27,1281.28 1177,1289.5C 1170.55,1307.33 1173.72,1323.16 1186.5,1337C 1189.82,1339.56 1193.49,1341.56 1197.5,1343C 1206.5,1343.33 1215.5,1343.67 1224.5,1344C 1236.65,1350.47 1242.49,1360.63 1242,1374.5C 1237.34,1377.91 1232.17,1380.41 1226.5,1382C 1218.1,1387.86 1210.1,1394.2 1202.5,1401C 1196.31,1404.5 1190.31,1404.17 1184.5,1400C 1179.52,1395.09 1174.52,1390.09 1169.5,1385C 1164.02,1380.83 1158.35,1380.5 1152.5,1384C 1148.58,1387.25 1145.41,1391.08 1143,1395.5C 1139.8,1399.04 1136.3,1402.2 1132.5,1405C 1120.25,1409.08 1112.42,1404.92 1109,1392.5C 1107.47,1381.15 1107.8,1369.81 1110,1358.5C 1110.38,1336.65 1111.21,1314.81 1112.5,1293C 1109.89,1250.67 1109.89,1208.33 1112.5,1166C 1111.9,1156.66 1111.23,1147.33 1110.5,1138C 1109.22,1122.2 1116.22,1112.53 1131.5,1109C 1189.83,1108.67 1248.17,1108.33 1306.5,1108C 1310.03,1107.82 1313.36,1107.32 1316.5,1106.5 Z"/></g>
<g><path style="opacity:1" fill="#fefffe" d="M 194.5,1108.5 C 237.56,1108.02 280.56,1108.52 323.5,1110C 332.945,1114.45 340.112,1121.28 345,1130.5C 352.371,1137.54 360.038,1144.21 368,1150.5C 371.333,1155.17 374.667,1159.83 378,1164.5C 385.932,1170.43 393.265,1177.09 400,1184.5C 408.352,1196.71 410.686,1210.05 407,1224.5C 405.92,1227 404.586,1229.33 403,1231.5C 397.59,1235.79 392.09,1239.95 386.5,1244C 379.255,1251.45 377.755,1259.95 382,1269.5C 386.909,1275.41 392.742,1280.24 399.5,1284C 408.097,1292.81 410.93,1303.31 408,1315.5C 407.078,1322.61 404.411,1328.94 400,1334.5C 392.667,1341.17 385.333,1347.83 378,1354.5C 374.667,1359.17 371.333,1363.83 368,1368.5C 362.544,1372.29 357.377,1376.45 352.5,1381C 345.127,1388.7 338.127,1396.7 331.5,1405C 328.833,1406.33 326.167,1407.67 323.5,1409C 301.545,1410.28 279.545,1411.44 257.5,1412.5C 236.523,1411.14 215.523,1410.3 194.5,1410C 190.951,1409.23 187.618,1407.89 184.5,1406C 177.788,1399.86 171.788,1393.19 166.5,1386C 160.892,1382.72 155.558,1379.06 150.5,1375C 143.086,1368.71 141.586,1361.21 146,1352.5C 153,1346.5 160,1340.5 167,1334.5C 170.333,1329.17 170.333,1323.83 167,1318.5C 159.728,1312.9 152.728,1306.9 146,1300.5C 142.667,1295.5 142.667,1290.5 146,1285.5C 152.706,1279.13 159.706,1273.13 167,1267.5C 170.48,1261.32 170.147,1255.32 166,1249.5C 158.756,1244.93 152.09,1239.59 146,1233.5C 142.667,1228.5 142.667,1223.5 146,1218.5C 151.698,1212.47 157.698,1206.8 164,1201.5C 167.574,1194.93 167.241,1188.59 163,1182.5C 157.635,1176.8 151.969,1171.47 146,1166.5C 141.586,1157.79 143.086,1150.29 150.5,1144C 155.558,1139.94 160.892,1136.28 166.5,1133C 171.798,1125.77 177.798,1119.1 184.5,1113C 187.815,1111.17 191.149,1109.67 194.5,1108.5 Z M 228.5,1175.5 C 259.168,1175.33 289.835,1175.5 320.5,1176C 335.809,1182.01 343.142,1193.34 342.5,1210C 340.256,1226.43 338.923,1242.93 338.5,1259.5C 338.923,1276.07 340.256,1292.57 342.5,1309C 343.225,1324.24 336.892,1335.24 323.5,1342C 313.573,1343.26 303.573,1343.92 293.5,1344C 291.754,1344.47 290.087,1345.14 288.5,1346C 281.468,1352.7 274.802,1359.7 268.5,1367C 257.213,1373.72 248.046,1371.55 241,1360.5C 239.157,1356.54 238.323,1352.37 238.5,1348C 242.906,1329.14 236.239,1316.14 218.5,1309C 210.185,1302.67 208.352,1294.84 213,1285.5C 220.603,1279.57 227.937,1273.24 235,1266.5C 238.333,1260.83 238.333,1255.17 235,1249.5C 229.346,1243.51 222.846,1238.68 215.5,1235C 210.766,1231.7 207.933,1227.2 207,1221.5C 203.985,1205.37 208.152,1191.54 219.5,1180C 222.592,1178.45 225.592,1176.95 228.5,1175.5 Z"/></g>
<g><path style="opacity:1" fill="#fefffe" d="M 1399.5,1108.5 C 1452.5,1108.33 1505.5,1108.5 1558.5,1109C 1562.92,1110.25 1566.92,1112.25 1570.5,1115C 1576.26,1122.52 1582.26,1129.85 1588.5,1137C 1597.82,1141.9 1605.32,1148.73 1611,1157.5C 1611.79,1160.47 1612.46,1163.47 1613,1166.5C 1612.33,1195.17 1612.33,1223.83 1613,1252.5C 1612.3,1256.93 1610.64,1260.93 1608,1264.5C 1600.05,1270.12 1592.38,1276.12 1585,1282.5C 1579.61,1292.77 1581.44,1301.6 1590.5,1309C 1594.9,1312.39 1599.56,1315.39 1604.5,1318C 1609.01,1322.18 1611.51,1327.35 1612,1333.5C 1612.33,1339.83 1612.67,1346.17 1613,1352.5C 1613.48,1356.47 1614.82,1360.13 1617,1363.5C 1622.71,1368.94 1628.88,1373.77 1635.5,1378C 1646.17,1388.33 1646.17,1398.67 1635.5,1409C 1631.92,1411.63 1627.92,1412.79 1623.5,1412.5C 1614.48,1411.9 1605.48,1411.06 1596.5,1410C 1586.86,1404.24 1579.36,1396.41 1574,1386.5C 1567.37,1381.44 1560.87,1376.28 1554.5,1371C 1549.57,1366.07 1545.4,1360.57 1542,1354.5C 1535.74,1348.24 1528.91,1342.74 1521.5,1338C 1515.97,1331.77 1510.81,1325.27 1506,1318.5C 1494.5,1309 1484,1298.5 1474.5,1287C 1464.13,1279.04 1454.63,1279.87 1446,1289.5C 1444.44,1291.96 1443.44,1294.62 1443,1297.5C 1442.33,1303.5 1442.33,1309.5 1443,1315.5C 1446.64,1329.37 1447.31,1343.37 1445,1357.5C 1443.86,1360.58 1442.53,1363.58 1441,1366.5C 1433.67,1373.17 1426.33,1379.83 1419,1386.5C 1414.9,1393.59 1409.74,1399.76 1403.5,1405C 1385.59,1410.28 1376.59,1403.44 1376.5,1384.5C 1377.64,1373.31 1378.97,1362.14 1380.5,1351C 1379.31,1337.35 1378.31,1323.68 1377.5,1310C 1378.58,1293.17 1379.58,1276.34 1380.5,1259.5C 1379.45,1242.34 1378.45,1225.17 1377.5,1208C 1378.12,1190.14 1378.12,1172.31 1377.5,1154.5C 1377.58,1143.5 1379.41,1132.83 1383,1122.5C 1386.56,1115.43 1392.06,1110.76 1399.5,1108.5 Z M 1464.5,1175.5 C 1484.84,1175.33 1505.17,1175.5 1525.5,1176C 1541.34,1181.38 1548.67,1192.54 1547.5,1209.5C 1546.44,1235.06 1533.11,1246.06 1507.5,1242.5C 1493.12,1242.51 1478.78,1241.68 1464.5,1240C 1449.82,1235.01 1442.49,1224.67 1442.5,1209C 1442.51,1192.78 1449.84,1181.61 1464.5,1175.5 Z"/></g>
<g><path style="opacity:1" fill="#fefffe" d="M 1319.5,1340.5 C 1321.64,1340.69 1323.98,1340.86 1326.5,1341C 1339.47,1348.05 1342.64,1358.22 1336,1371.5C 1331.42,1376.75 1326.26,1381.25 1320.5,1385C 1314.2,1392.3 1307.53,1399.3 1300.5,1406C 1298.33,1407.59 1296,1408.92 1293.5,1410C 1283.23,1411.74 1272.9,1412.41 1262.5,1412C 1253.2,1406.58 1248.03,1398.41 1247,1387.5C 1246.33,1384.5 1246.33,1381.5 1247,1378.5C 1255.76,1374.2 1264.59,1370.04 1273.5,1366C 1279.86,1358.64 1286.52,1351.64 1293.5,1345C 1294.83,1344.33 1296.17,1343.67 1297.5,1343C 1305,1342.29 1312.33,1341.45 1319.5,1340.5 Z"/></g>
<g><path style="opacity:1" fill="#fefffe" d="M 523.5,1446.5 C 527.813,1446.55 531.813,1447.71 535.5,1450C 541.096,1455.59 545.93,1461.76 550,1468.5C 557,1474.83 564,1481.17 571,1487.5C 572.197,1490.09 573.197,1492.76 574,1495.5C 574.755,1504.83 575.422,1514.16 576,1523.5C 577.287,1527.37 578.953,1531.04 581,1534.5C 589.037,1542.21 597.37,1549.54 606,1556.5C 612.947,1566.78 621.281,1575.78 631,1583.5C 635.806,1590.27 640.972,1596.77 646.5,1603C 657.206,1610.23 666.039,1608.4 673,1597.5C 678.347,1583.7 677.347,1570.37 670,1557.5C 663.598,1550.43 656.598,1544.09 649,1538.5C 644.791,1531.33 644.458,1524 648,1516.5C 653.209,1511.62 658.709,1507.12 664.5,1503C 668.709,1499.08 671.209,1494.25 672,1488.5C 672.333,1481.83 672.667,1475.17 673,1468.5C 675.592,1450.53 685.425,1444.03 702.5,1449C 707.584,1452.91 710.417,1458.07 711,1464.5C 711.333,1471.83 711.667,1479.17 712,1486.5C 712.534,1490.77 713.867,1494.77 716,1498.5C 722.027,1504.53 728.027,1510.53 734,1516.5C 738.779,1524.38 738.446,1532.05 733,1539.5C 726,1545.17 719.667,1551.5 714,1558.5C 707.236,1573.13 708.236,1587.13 717,1600.5C 722.482,1605.26 727.816,1610.26 733,1615.5C 737.231,1621.93 737.564,1628.6 734,1635.5C 728.333,1640.5 722.667,1645.5 717,1650.5C 711.273,1657.07 711.106,1663.73 716.5,1670.5C 722.366,1675.17 727.866,1680.17 733,1685.5C 737.231,1691.93 737.564,1698.6 734,1705.5C 728.791,1710.38 723.291,1714.88 717.5,1719C 715.3,1721.23 713.467,1723.73 712,1726.5C 710.733,1737.76 710.066,1749.1 710,1760.5C 708.076,1769.76 702.41,1774.76 693,1775.5C 688.451,1774.98 684.285,1773.48 680.5,1771C 675.896,1766.4 672.062,1761.23 669,1755.5C 661.667,1748.83 654.333,1742.17 647,1735.5C 645.107,1732.38 643.774,1729.05 643,1725.5C 642.167,1716.18 641.501,1706.85 641,1697.5C 640.226,1693.95 638.893,1690.62 637,1687.5C 631.1,1681.6 624.6,1676.44 617.5,1672C 612.565,1667.07 608.399,1661.57 605,1655.5C 597.333,1648.5 589.667,1641.5 582,1634.5C 580.438,1632.04 579.438,1629.38 579,1626.5C 577.935,1617.2 577.268,1607.86 577,1598.5C 572.087,1582.12 561.92,1577.29 546.5,1584C 540.783,1590.5 538.117,1598.16 538.5,1607C 540.068,1619.81 541.401,1632.64 542.5,1645.5C 541.361,1665.82 541.361,1686.16 542.5,1706.5C 544.494,1719.38 541.16,1730.55 532.5,1740C 530.33,1741.59 527.996,1742.92 525.5,1744C 519.833,1744.17 514.167,1744.33 508.5,1744.5C 495.747,1747.42 485.581,1743.75 478,1733.5C 475.647,1728.77 474.314,1723.77 474,1718.5C 473.084,1700.46 473.418,1682.46 475,1664.5C 476,1662.17 477,1659.83 478,1657.5C 484.706,1651.13 491.706,1645.13 499,1639.5C 503.625,1631.56 503.625,1623.56 499,1615.5C 491.706,1609.87 484.706,1603.87 478,1597.5C 474.677,1590.57 473.177,1583.23 473.5,1575.5C 474.826,1554.67 474.826,1533.83 473.5,1513C 472.493,1501.95 475.327,1492.12 482,1483.5C 487.456,1479.71 492.623,1475.55 497.5,1471C 502.792,1464.04 508.458,1457.37 514.5,1451C 517.324,1448.92 520.324,1447.42 523.5,1446.5 Z"/></g>
<g><path style="opacity:1" fill="#fefffe" d="M 891.5,1447.5 C 894.625,1447.86 897.625,1448.7 900.5,1450C 906.478,1456.31 912.812,1462.31 919.5,1468C 924.5,1470 929.5,1470 934.5,1468C 940.473,1462.03 946.473,1456.03 952.5,1450C 962.474,1445.12 970.64,1447.29 977,1456.5C 979.667,1460.5 982.333,1464.5 985,1468.5C 991.974,1474.8 998.974,1481.14 1006,1487.5C 1008.74,1492.13 1010.41,1497.13 1011,1502.5C 1011.67,1518.83 1011.67,1535.17 1011,1551.5C 1010.25,1556.5 1008.58,1561.17 1006,1565.5C 999.722,1571.11 992.888,1575.94 985.5,1580C 977.205,1590.02 977.538,1599.69 986.5,1609C 998.632,1616.12 1009.3,1625.12 1018.5,1636C 1028.86,1641.02 1035.53,1649.02 1038.5,1660C 1037.98,1664.55 1036.48,1668.72 1034,1672.5C 1028.76,1678.41 1022.93,1683.58 1016.5,1688C 1007.91,1699.92 997.414,1709.75 985,1717.5C 980.525,1722.44 976.525,1727.77 973,1733.5C 961.234,1743.1 951.068,1754.1 942.5,1766.5C 932.29,1778.02 921.79,1778.35 911,1767.5C 905.864,1759.03 899.364,1751.87 891.5,1746C 881.82,1745.62 872.153,1745.96 862.5,1747C 859.833,1748.67 857.167,1750.33 854.5,1752C 848.744,1758.81 842.744,1765.48 836.5,1772C 829.512,1776.66 822.512,1776.66 815.5,1772C 810.235,1766.74 805.735,1760.9 802,1754.5C 795.968,1748.24 789.468,1742.58 782.5,1737.5C 778.878,1732.81 776.711,1727.48 776,1721.5C 776.353,1710.51 776.853,1699.51 777.5,1688.5C 776.019,1667.64 776.353,1646.81 778.5,1626C 774.566,1595.15 774.566,1564.32 778.5,1533.5C 777.555,1524.5 776.555,1515.5 775.5,1506.5C 775.513,1497.96 778.013,1490.29 783,1483.5C 793.763,1476.28 802.763,1467.28 810,1456.5C 818.706,1447.85 827.873,1447.35 837.5,1455C 841.866,1459.7 846.533,1464.03 851.5,1468C 856.5,1470 861.5,1470 866.5,1468C 871.833,1464 876.5,1459.33 880.5,1454C 883.647,1450.77 887.314,1448.6 891.5,1447.5 Z M 890.5,1510.5 C 901.499,1511.24 912.499,1512.07 923.5,1513C 940.824,1519.46 947.991,1531.96 945,1550.5C 943.071,1563.76 935.571,1571.93 922.5,1575C 912.647,1575.67 902.814,1576.5 893,1577.5C 883.186,1576.5 873.353,1575.67 863.5,1575C 848.082,1570.52 840.415,1560.19 840.5,1544C 840.478,1528.36 847.811,1518.02 862.5,1513C 871.996,1512.26 881.329,1511.43 890.5,1510.5 Z M 855.5,1616.5 C 860.183,1616.94 864.516,1618.44 868.5,1621C 873.167,1625.33 877.833,1629.67 882.5,1634C 889.5,1638.67 896.5,1638.67 903.5,1634C 909.358,1627.73 916.025,1622.39 923.5,1618C 934.963,1615.49 942.13,1619.99 945,1631.5C 945.167,1634.83 945.333,1638.17 945.5,1641.5C 944.684,1657.83 944.518,1674.16 945,1690.5C 940.974,1706.6 931.807,1710.77 917.5,1703C 913.399,1698.14 909.066,1693.48 904.5,1689C 898.222,1684.14 891.555,1683.48 884.5,1687C 877.889,1693.63 870.556,1699.3 862.5,1704C 851.252,1707.12 844.085,1702.95 841,1691.5C 841.632,1671.5 841.632,1651.5 841,1631.5C 842.681,1623.32 847.514,1618.32 855.5,1616.5 Z"/></g>
<g><path style="opacity:1" fill="#fefffe" d="M 1191.5,1448.5 C 1196.94,1448.48 1201.94,1449.98 1206.5,1453C 1211.6,1458.04 1216.1,1463.54 1220,1469.5C 1227.35,1475.52 1234.35,1481.85 1241,1488.5C 1243.77,1498.62 1245.11,1508.95 1245,1519.5C 1245.31,1527.45 1248.48,1533.95 1254.5,1539C 1262.27,1543.77 1269.1,1549.6 1275,1556.5C 1278.12,1570.08 1280.79,1583.74 1283,1597.5C 1288.28,1604.9 1294.78,1611.07 1302.5,1616C 1310.2,1624.43 1313.53,1634.43 1312.5,1646C 1311.63,1655.82 1310.96,1665.65 1310.5,1675.5C 1308.73,1690.13 1314.39,1700.63 1327.5,1707C 1331.62,1710.15 1335.45,1713.65 1339,1717.5C 1345.2,1732.45 1340.53,1742.45 1325,1747.5C 1315.53,1746.45 1306.03,1745.62 1296.5,1745C 1286.78,1740.4 1279.61,1733.24 1275,1723.5C 1266.67,1716.5 1258.33,1709.5 1250,1702.5C 1245.59,1695.42 1240.43,1688.92 1234.5,1683C 1230.17,1679.92 1225.33,1678.42 1220,1678.5C 1211.34,1679.29 1202.68,1679.95 1194,1680.5C 1183.18,1679.39 1172.35,1678.89 1161.5,1679C 1152.24,1683.98 1145.07,1691.15 1140,1700.5C 1133.74,1706.76 1126.91,1712.26 1119.5,1717C 1114.23,1722.26 1109.73,1728.1 1106,1734.5C 1102.13,1738.85 1097.63,1742.35 1092.5,1745C 1082.63,1745.57 1072.8,1746.41 1063,1747.5C 1047.21,1742.45 1042.87,1732.45 1050,1717.5C 1055.89,1712.14 1062.06,1707.14 1068.5,1702.5C 1071.98,1699.52 1074.48,1695.85 1076,1691.5C 1077.66,1682.89 1078.99,1674.22 1080,1665.5C 1080.74,1661.61 1082.07,1657.95 1084,1654.5C 1088.88,1648.95 1094.38,1644.12 1100.5,1640C 1107.93,1633.38 1111.27,1625.05 1110.5,1615C 1109.61,1604.49 1108.61,1593.99 1107.5,1583.5C 1107.02,1571.36 1110.35,1560.53 1117.5,1551C 1125.27,1545.89 1132.44,1540.06 1139,1533.5C 1140.89,1530.38 1142.23,1527.05 1143,1523.5C 1143.58,1514.16 1144.24,1504.83 1145,1495.5C 1145.76,1492.22 1147.09,1489.22 1149,1486.5C 1155.64,1480.53 1162.31,1474.53 1169,1468.5C 1172.45,1463.38 1176.29,1458.55 1180.5,1454C 1183.99,1451.59 1187.66,1449.75 1191.5,1448.5 Z M 1162.5,1575.5 C 1173.18,1575.83 1183.85,1576.5 1194.5,1577.5C 1204.82,1576.39 1215.15,1575.89 1225.5,1576C 1238.7,1582.93 1241.86,1593.1 1235,1606.5C 1225.78,1616.06 1216.28,1625.22 1206.5,1634C 1197.57,1640.2 1188.91,1639.87 1180.5,1633C 1170.02,1623.52 1160.19,1613.35 1151,1602.5C 1147.71,1590.43 1151.54,1581.43 1162.5,1575.5 Z"/></g>
</svg>
